PathFileType	4	(X/Y/Z)	/Users/itak/Documents/Research/Walk-IL/dataset/trc/00260_00009.trc
DataRate	CameraRate	NumFrames	NumMarkers	Units	OrigDataRate	OrigDataStartFrame	OrigNumFrames
100.000000	100.000000	4	53	mm	100.000000	369	493
Frame#	Time	RPSI			LPSI			L3			STRN			T10			C7			CLAV			RBAK			LBAK			LSHO			LUPA			LAEL			LAOL			LWTS			LWPS			LFRA			LIFD			LHPS			LHTS			RSHO			RUPA			RAEL			RAOL			RWTS			RWPS			RFRA			RIFD			RHTS			RHPS			RBHD			LFHD			RFHD			LBHD			LHIP			RHIP			RASI			LASI			LKNE			LTHI			LANK			LTIP			LTOE			LMT1			LMT5			LHEE			RKNE			RTHI			RTIP			RTOE			RMT1			RMT5			RHEE			RANK			
		X1	Y1	Z1	X2	Y2	Z2	X3	Y3	Z3	X4	Y4	Z4	X5	Y5	Z5	X6	Y6	Z6	X7	Y7	Z7	X8	Y8	Z8	X9	Y9	Z9	X10	Y10	Z10	X11	Y11	Z11	X12	Y12	Z12	X13	Y13	Z13	X14	Y14	Z14	X15	Y15	Z15	X16	Y16	Z16	X17	Y17	Z17	X18	Y18	Z18	X19	Y19	Z19	X20	Y20	Z20	X21	Y21	Z21	X22	Y22	Z22	X23	Y23	Z23	X24	Y24	Z24	X25	Y25	Z25	X26	Y26	Z26	X27	Y27	Z27	X28	Y28	Z28	X29	Y29	Z29	X30	Y30	Z30	X31	Y31	Z31	X32	Y32	Z32	X33	Y33	Z33	X34	Y34	Z34	X35	Y35	Z35	X36	Y36	Z36	X37	Y37	Z37	X38	Y38	Z38	X39	Y39	Z39	X40	Y40	Z40	X41	Y41	Z41	X42	Y42	Z42	X43	Y43	Z43	X44	Y44	Z44	X45	Y45	Z45	X46	Y46	Z46	X47	Y47	Z47	X48	Y48	Z48	X49	Y49	Z49	X50	Y50	Z50	X51	Y51	Z51	X52	Y52	Z52	X53	Y53	Z53	

370	3.69	52.06086349487305	1037.238159179688	-338.2946166992188	-68.04242706298828	1039.08837890625	-350.8638000488281	-29.07657432556152	1115.285034179688	-334.84228515625	-17.80484580993652	1323.001220703125	-566.9769897460938	-26.84756088256836	1241.945190429688	-318.6065979003906	-37.87771606445312	1507.282470703125	-361.2630615234375	-21.94942855834961	1438.112915039062	-531.8463745117188	33.77673721313477	1364.703735351562	-292.2008972167969	-146.3067779541016	1464.426635742188	-349.848388671875	-197.664306640625	1469.975463867188	-440.7762451171875	-273.9706115722656	1347.714599609375	-417.7245788574219	-294.7724304199219	1137.566284179688	-432.1141662597656	-238.5774841308594	1120.45654296875	-366.5592956542969	-249.9998779296875	903.0845947265625	-530.994140625	-326.2877197265625	888.6760864257812	-495.3441467285156	-310.4646911621094	1031.271118164062	-452.29296875	-256.9154052734375	711.9400024414062	-518.2855224609375	-324.4743347167969	799.2301025390625	-509.103515625	-276.6808776855469	800.7966918945312	-557.2606201171875	136.3770904541016	1479.222045898438	-407.1864624023438	202.2667694091797	1414.443115234375	-387.3807983398438	255.7619171142578	1136.41796875	-387.2852478027344	164.0067749023438	1123.897216796875	-364.5331115722656	233.7728729248047	931.909912109375	-544.4771728515625	295.2570495605469	916.530029296875	-488.7983093261719	273.9267578125	1071.328002929688	-419.0530090332031	231.5157928466797	743.46142578125	-569.4322509765625	256.1470947265625	815.3790283203125	-592.22021484375	304.3826293945312	813.185302734375	-537.452392578125	9.357316970825195	1665.19189453125	-381.5870056152344	-68.8870849609375	1730.119018554688	-584.9052734375	31.2935676574707	1731.497192382812	-575.2362060546875	-118.8183746337891	1675.08544921875	-437.9665222167969	-197.7545166015625	982.1607055664062	-467.8617858886719	164.749755859375	1007.434936523438	-431.6032104492188	143.6039276123047	1064.1689453125	-530.5817260742188	-143.7328186035156	1029.600830078125	-561.2841186523438	-134.9152526855469	502.2089233398438	-489.38916015625	-167.8511657714844	644.445556640625	-494.2239379882812	-109.4911651611328	32.75849151611328	-396.6333312988281	-133.5078582763672	279.2346496582031	-436.1681213378906	-40.32545471191406	40.61856842041016	-609.378662109375	-1.097685098648071	36.45908737182617	-537.5498657226562	-118.1519165039062	34.72725677490234	-525.0835571289062	-59.98069000244141	37.97668075561523	-332.0966186523438	142.3932952880859	517.8915405273438	-488.3131103515625	183.6362152099609	786.0545043945312	-497.6134033203125	126.6399459838867	398.2178039550781	-493.7088928222656	85.43951416015625	42.46405792236328	-615.6283569335938	39.86106109619141	39.04967880249023	-560.9437255859375	150.8375244140625	34.72823715209961	-511.5838317871094	59.66901397705078	33.88313674926758	-342.7370300292969	120.3638153076172	34.69892120361328	-403.0930786132812	
371	3.7	52.80625534057617	1037.311401367188	-338.7583618164062	-67.34831237792969	1039.23095703125	-351.0891723632812	-28.20958137512207	1115.374145507812	-335.1679382324219	-17.278076171875	1322.9892578125	-567.4910278320312	-25.95311737060547	1242.013793945312	-319.0655822753906	-36.86044311523438	1507.345703125	-361.8082580566406	-21.33781814575195	1438.110717773438	-532.406494140625	34.9672966003418	1364.8017578125	-292.8325805664062	-145.2391204833984	1464.5146484375	-350.0701599121094	-196.8217926025391	1470.024780273438	-440.8993530273438	-273.0876159667969	1347.779174804688	-417.7893676757812	-293.9562072753906	1137.613159179688	-432.5106506347656	-237.6947174072266	1120.39453125	-367.0640869140625	-249.2595520019531	903.421142578125	-531.9689331054688	-325.5048217773438	888.86376953125	-496.2664184570312	-309.560791015625	1031.377563476562	-452.8671569824219	-256.1235961914062	712.2195434570312	-519.9340209960938	-323.6775207519531	799.4824829101562	-510.323974609375	-275.9198608398438	801.2402954101562	-558.5424194335938	137.3091888427734	1479.232788085938	-408.1649780273438	203.2234954833984	1414.43701171875	-388.4914855957031	256.517822265625	1136.345703125	-388.3506164550781	164.8728790283203	1123.948120117188	-365.2186584472656	233.4220581054688	931.819091796875	-545.344482421875	295.202880859375	916.3353271484375	-490.0207214355469	274.4604797363281	1071.1904296875	-420.1788635253906	230.7227020263672	743.3969116210938	-570.3505859375	255.4365844726562	815.2648315429688	-593.264892578125	303.9037780761719	812.9579467773438	-538.7103271484375	10.26947975158691	1665.225830078125	-382.2169189453125	-68.37553405761719	1730.139038085938	-585.397216796875	31.80590438842773	1731.549194335938	-575.906005859375	-118.0878295898438	1675.072387695312	-438.3806762695312	-197.2857360839844	982.2262573242188	-467.7457580566406	165.6009368896484	1007.350708007812	-432.0427551269531	143.7793273925781	1063.772338867188	-531.0593872070312	-143.3713226318359	1029.618408203125	-561.347412109375	-134.7412719726562	502.2279357910156	-489.2982177734375	-167.6976623535156	644.5158081054688	-494.0886840820312	-109.4827651977539	32.76389694213867	-396.6103820800781	-133.3560943603516	279.2629699707031	-436.0719604492188	-40.35958480834961	40.65177154541016	-609.3532104492188	-1.115584969520569	36.472900390625	-537.5322265625	-118.1371841430664	34.73795700073242	-525.07080078125	-59.95940780639648	37.95484161376953	-332.0544128417969	142.5886688232422	517.7711791992188	-488.6714172363281	183.9387969970703	785.8819580078125	-498.1417541503906	126.6988906860352	398.0741271972656	-493.99169921875	85.39147186279297	42.43753433227539	-615.62939453125	39.80462265014648	39.0032958984375	-560.9375	150.7900390625	34.74636840820312	-511.5906066894531	59.68742752075195	33.86301422119141	-342.7409973144531	120.3614120483398	34.69349670410156	-403.091796875	
372	3.71	53.54707717895508	1037.363403320312	-339.2146606445312	-66.62946319580078	1039.367065429688	-351.2760620117188	-27.32564163208008	1115.46923828125	-335.4573364257812	-16.75730133056641	1322.969604492188	-567.9898681640625	-25.04259300231934	1242.090087890625	-319.5031433105469	-35.82466125488281	1507.411376953125	-362.3464965820312	-20.72537040710449	1438.101440429688	-532.9602661132812	36.17430114746094	1364.901000976562	-293.4469604492188	-144.148681640625	1464.622192382812	-350.275634765625	-195.986328125	1470.0859375	-441.0233459472656	-272.1952209472656	1347.866455078125	-417.8678283691406	-293.1357421875	1137.673095703125	-432.9782104492188	-236.8373413085938	1120.33642578125	-367.6210021972656	-248.453125	903.8184814453125	-533.0955810546875	-324.6547241210938	889.0863037109375	-497.3693237304688	-308.6422119140625	1031.497680664062	-453.5606384277344	-255.2371673583984	712.5614624023438	-521.8375854492188	-322.8052368164062	799.7800903320312	-511.7695617675781	-275.0661926269531	801.759521484375	-560.0357666015625	138.2436676025391	1479.227294921875	-409.1442565917969	204.1840972900391	1414.415771484375	-389.6046752929688	257.279296875	1136.260131835938	-389.4082946777344	165.7412261962891	1123.986083984375	-365.8955993652344	233.0641632080078	931.7062377929688	-546.1837158203125	295.1485900878906	916.12109375	-491.2173767089844	274.9922180175781	1071.037353515625	-421.2960205078125	229.9340972900391	743.3058471679688	-571.2279663085938	254.7368774414062	815.130615234375	-594.2764892578125	303.4286499023438	812.7100830078125	-539.936767578125	11.22094821929932	1665.244995117188	-382.8414611816406	-67.86092376708984	1730.171020507812	-585.8588256835938	32.33035278320312	1731.604614257812	-576.5586547851562	-117.3414764404297	1675.056640625	-438.7674255371094	-196.8085327148438	982.3110961914062	-467.5288391113281	166.4986419677734	1007.263061523438	-432.4580078125	143.6883239746094	1063.182861328125	-531.3871459960938	-143.0121612548828	1029.64013671875	-561.3609008789062	-134.5591735839844	502.2471008300781	-489.2321166992188	-167.5726470947266	644.5828247070312	-493.9740905761719	-109.4716567993164	32.77315139770508	-396.58984375	-133.1739959716797	279.2848815917969	-435.9897766113281	-40.38893890380859	40.68487548828125	-609.3306274414062	-1.131461024284363	36.4852409362793	-537.5162963867188	-118.1189270019531	34.74919891357422	-525.0589599609375	-59.93041229248047	37.93552017211914	-332.0108032226562	142.7750549316406	517.6494140625	-489.071533203125	184.2219085693359	785.7103271484375	-498.7117919921875	126.7455520629883	397.9302062988281	-494.3081665039062	85.33921813964844	42.40619659423828	-615.6348876953125	39.74529266357422	38.95399856567383	-560.9349365234375	150.7448883056641	34.77194213867188	-511.6031188964844	59.70415496826172	33.84815979003906	-342.7455139160156	120.35888671875	34.69064331054688	-403.09130859375	
373	3.72	54.28844451904297	1037.396118164062	-339.6632385253906	-65.88230895996094	1039.495727539062	-351.4259948730469	-26.42348098754883	1115.569458007812	-335.7129516601562	-16.24537086486816	1322.94287109375	-568.4741821289062	-24.1114501953125	1242.1728515625	-319.9133911132812	-34.77396392822266	1507.479248046875	-362.8778686523438	-20.11357116699219	1438.086059570312	-533.507080078125	37.39405822753906	1365.00244140625	-294.0450134277344	-143.0438232421875	1464.748901367188	-350.4696044921875	-195.1580200195312	1470.161743164062	-441.1498107910156	-271.2942199707031	1347.976684570312	-417.96044921875	-292.3091735839844	1137.750732421875	-433.513916015625	-236.0067596435547	1120.2861328125	-368.2261657714844	-247.5780487060547	904.2745971679688	-534.3615112304688	-323.7350769042969	889.3449096679688	-498.640869140625	-307.7140502929688	1031.634033203125	-454.3701782226562	-254.2563934326172	712.9659423828125	-523.9783935546875	-321.8540649414062	800.12353515625	-513.4249267578125	-274.1227722167969	802.3528442382812	-561.7264404296875	139.1789855957031	1479.204833984375	-410.1215515136719	205.145751953125	1414.378662109375	-390.718505859375	258.0419006347656	1136.159912109375	-390.4614868164062	166.6012115478516	1124.009521484375	-366.5729064941406	232.7107238769531	931.5723876953125	-547.0010375976562	295.1000671386719	915.8892822265625	-492.3895263671875	275.5201110839844	1070.868774414062	-422.406494140625	229.1646270751953	743.1844482421875	-572.0631103515625	254.0571899414062	814.9718627929688	-595.25390625	302.968017578125	812.4440307617188	-541.1304321289062	12.21007919311523	1665.247924804688	-383.4616394042969	-67.33982086181641	1730.21484375	-586.2913208007812	32.87033462524414	1731.660888671875	-577.1962890625	-116.5703582763672	1675.041625976562	-439.1266174316406	-196.3211364746094	982.4127807617188	-467.2203979492188	167.4245300292969	1007.172485351562	-432.8636169433594	143.3211364746094	1062.393676757812	-531.5601806640625	-142.6566467285156	1029.6669921875	-561.3284912109375	-134.3679656982422	502.2677307128906	-489.1936340332031	-167.4666290283203	644.6458740234375	-493.8814697265625	-109.4573211669922	32.7867317199707	-396.5721130371094	-132.9686126708984	279.3028869628906	-435.9254760742188	-40.41282272338867	40.71728897094727	-609.3114624023438	-1.144821763038635	36.49535751342773	-537.50244140625	-118.0973739624023	34.76102447509766	-525.0481567382812	-59.89607620239258	37.92065048217773	-331.9684143066406	142.9500427246094	517.5258178710938	-489.4994201660156	184.4798583984375	785.5401000976562	-499.3243408203125	126.7829971313477	397.789794921875	-494.6426696777344	85.28411102294922	42.3720817565918	-615.643310546875	39.68447875976562	38.90302658081055	-560.93505859375	150.7050476074219	34.80570983886719	-511.6214294433594	59.71960830688477	33.83745193481445	-342.7493591308594	120.3563232421875	34.68965148925781	-403.0914001464844	
